<?xml version="1.0" standalone="no"?>
<!DOCTYPE svg PUBLIC "-//W3C//DTD SVG 20010904//EN"
 "http://www.w3.org/TR/2001/REC-SVG-20010904/DTD/svg10.dtd">
<svg version="1.0" xmlns="http://www.w3.org/2000/svg"
 width="324.000000pt" height="480.000000pt" viewBox="0 0 324.000000 480.000000"
 preserveAspectRatio="xMidYMid meet">
<metadata>
Created by potrace 1.16, written by Peter Selinger 2001-2019
</metadata>
<g transform="translate(0.000000,480.000000) scale(0.100000,-0.100000)"
fill="#000000" stroke="none">
<path d="M1407 4754 c-4 -4 -7 -186 -7 -404 l0 -397 -87 -18 c-160 -31 -357
-105 -488 -184 -223 -133 -432 -342 -566 -566 -79 -132 -167 -365 -186 -490
-2 -16 -6 -36 -9 -44 -8 -23 -19 -179 -19 -261 0 -83 12 -257 19 -268 2 -4 7
-25 10 -47 25 -155 130 -406 233 -559 68 -99 166 -218 227 -274 l46 -42 -137
-203 c-75 -111 -145 -213 -155 -226 -10 -13 -18 -29 -18 -35 0 -6 102 -78 226
-160 l226 -148 16 23 c10 13 42 60 73 104 30 44 76 110 102 148 26 37 68 97
93 135 26 37 48 68 49 70 1 1 59 -14 129 -34 l126 -37 2 -391 3 -391 303 -3
302 -2 0 393 0 394 126 37 c70 20 128 35 129 34 5 -6 66 -94 112 -163 44 -65
212 -306 218 -313 6 -7 455 293 455 304 0 6 -8 22 -18 35 -10 13 -80 115 -155
226 l-137 203 46 42 c25 23 74 76 109 118 222 267 339 545 375 890 11 104 14
305 5 320 -3 4 -9 39 -15 76 -5 38 -12 81 -15 95 -11 56 -75 237 -110 314 -35
75 -121 224 -135 235 -3 3 -17 21 -30 40 -58 83 -212 240 -308 313 -198 150
-420 249 -669 297 l-63 13 -2 401 -3 401 -211 3 c-115 1 -213 -1 -217 -4z
m433 -1035 c249 -45 451 -140 655 -309 195 -161 362 -433 424 -690 28 -118 34
-177 35 -325 0 -156 -10 -237 -41 -355 -8 -30 -17 -65 -20 -78 -3 -12 -9 -25
-14 -28 -5 -3 -9 -13 -9 -22 0 -9 -23 -61 -49 -114 -132 -263 -330 -465 -583
-598 -397 -208 -849 -208 -1246 0 -190 100 -353 242 -474 415 -67 97 -158 268
-158 299 0 8 -4 17 -9 20 -5 3 -11 16 -14 28 -3 13 -10 41 -16 63 -60 221 -59
482 4 720 138 525 609 928 1150 985 92 10 284 4 365 -11z"/>
<path d="M1404 3400 c-113 -26 -165 -44 -265 -94 -95 -48 -219 -138 -290 -213
-93 -96 -198 -276 -234 -398 -9 -33 -21 -71 -25 -85 -5 -14 -14 -73 -21 -132
-16 -143 -4 -248 48 -423 44 -147 132 -287 258 -412 181 -179 376 -271 641
-303 218 -26 479 38 676 165 78 51 238 205 286 276 154 229 224 536 178 779
-44 224 -137 400 -298 557 -141 138 -296 225 -487 275 -113 30 -358 34 -467 8z
m394 -289 c240 -63 451 -262 523 -491 50 -161 47 -340 -9 -488 -79 -207 -264
-387 -467 -454 -142 -46 -317 -46 -460 1 -203 66 -388 246 -467 453 -24 64
-50 213 -44 247 3 14 8 55 11 91 8 89 30 159 82 265 38 74 61 106 137 181 76
76 108 99 186 138 171 85 336 103 508 57z"/>
<path d="M1545 2676 c-86 -25 -153 -82 -197 -166 -19 -37 -23 -60 -22 -126 0
-70 4 -87 28 -130 39 -67 62 -90 125 -126 49 -28 64 -32 136 -32 65 -1 88 3
125 22 128 67 198 200 170 323 -23 103 -111 204 -199 229 -58 17 -123 19 -166
6z"/>
</g>
</svg>
