<?xml version="1.0" standalone="no"?>
<!DOCTYPE svg PUBLIC "-//W3C//DTD SVG 20010904//EN"
 "http://www.w3.org/TR/2001/REC-SVG-20010904/DTD/svg10.dtd">
<svg version="1.0" xmlns="http://www.w3.org/2000/svg"
 width="300.000000pt" height="300.000000pt" viewBox="0 0 300.000000 300.000000"
 preserveAspectRatio="xMidYMid meet">
<metadata>
Created by potrace 1.10, written by Peter Selinger 2001-2011
</metadata>
<g transform="translate(0.000000,300.000000) scale(0.100000,-0.100000)"
fill="#d10000" stroke="none">
<path d="M1505 2610 c-3 -5 -15 -49 -26 -97 -30 -126 -37 -426 -15 -578 21
-147 24 -139 -31 -111 -98 49 -242 88 -349 93 -166 9 -281 -32 -375 -135 -52
-57 -119 -185 -138 -263 -43 -185 -8 -385 109 -606 172 -327 424 -534 652
-535 53 -1 79 5 119 24 l51 26 44 -25 c60 -33 161 -35 254 -3 295 99 596 510
642 878 32 251 -86 503 -280 599 l-76 38 -130 0 c-91 -1 -149 -6 -191 -17 -37
-10 -54 -12 -43 -5 9 7 44 32 79 57 131 94 236 261 274 434 l6 29 -53 -44
c-150 -124 -434 -420 -498 -518 -15 -22 -16 -18 -18 72 -5 184 37 393 118 591
22 55 40 101 40 103 0 8 -159 2 -165 -7z m-607 -888 c7 -46 -104 -248 -149
-272 -67 -36 -43 113 36 217 59 79 106 102 113 55z"/>
</g>
</svg>
